<?xml version="1.0" encoding="UTF-8"?>
<svg width="700pt" height="700pt" version="1.1" viewBox="0 0 700 700" xmlns="http://www.w3.org/2000/svg" xmlns:xlink="http://www.w3.org/1999/xlink">
 <defs>
  <symbol id="u" overflow="visible">
   <path d="m7.9062-0.46875c-0.40625 0.21094-0.83594 0.36719-1.2812 0.46875-0.4375 0.11328-0.89844 0.17188-1.375 0.17188-1.4297 0-2.5625-0.39844-3.4062-1.2031-0.83594-0.80078-1.25-1.8906-1.25-3.2656s0.41406-2.4609 1.25-3.2656c0.84375-0.80078 1.9766-1.2031 3.4062-1.2031 0.47656 0 0.9375 0.058594 1.375 0.17188 0.44531 0.10547 0.875 0.26172 1.2812 0.46875v1.7812c-0.40625-0.28125-0.8125-0.48438-1.2188-0.60938-0.39844-0.13281-0.8125-0.20312-1.25-0.20312-0.79297 0-1.418 0.25781-1.875 0.76562-0.44922 0.5-0.67188 1.1992-0.67188 2.0938 0 0.88672 0.22266 1.5859 0.67188 2.0938 0.45703 0.51172 1.082 0.76562 1.875 0.76562 0.4375 0 0.85156-0.0625 1.25-0.1875 0.40625-0.13281 0.8125-0.34375 1.2188-0.625z"/>
  </symbol>
  <symbol id="e" overflow="visible">
   <path d="m5.7969-4.7031c-0.1875-0.082031-0.37109-0.14453-0.54688-0.1875-0.17969-0.039063-0.35547-0.0625-0.53125-0.0625-0.53125 0-0.94531 0.17188-1.2344 0.51562-0.28125 0.34375-0.42188 0.83594-0.42188 1.4688v2.9688h-2.0781v-6.4531h2.0781v1.0469c0.25781-0.41406 0.5625-0.71875 0.90625-0.90625 0.34375-0.19531 0.75391-0.29688 1.2344-0.29688 0.070313 0 0.14453 0.007813 0.21875 0.015625 0.082031 0 0.20312 0.011719 0.35938 0.03125z"/>
  </symbol>
  <symbol id="b" overflow="visible">
   <path d="m7.4375-3.25v0.59375h-4.8281c0.050781 0.48047 0.22656 0.84375 0.53125 1.0938 0.30078 0.24219 0.71875 0.35938 1.25 0.35938 0.4375 0 0.87891-0.0625 1.3281-0.1875 0.45703-0.13281 0.92969-0.33203 1.4219-0.59375v1.5938c-0.49219 0.1875-0.98047 0.32812-1.4688 0.42188-0.49219 0.09375-0.98047 0.14062-1.4688 0.14062-1.168 0-2.0781-0.29688-2.7344-0.89062-0.64844-0.59375-0.96875-1.4258-0.96875-2.5 0-1.0508 0.31641-1.8789 0.95312-2.4844 0.64453-0.60156 1.5234-0.90625 2.6406-0.90625 1.0078 0 1.8164 0.30859 2.4219 0.92188 0.61328 0.60547 0.92188 1.418 0.92188 2.4375zm-2.125-0.6875c0-0.38281-0.11719-0.69531-0.34375-0.9375-0.23047-0.25-0.52734-0.375-0.89062-0.375-0.39844 0-0.71875 0.11719-0.96875 0.34375-0.25 0.23047-0.40625 0.55469-0.46875 0.96875z"/>
  </symbol>
  <symbol id="d" overflow="visible">
   <path d="m3.8906-2.9062c-0.4375 0-0.76562 0.074219-0.98438 0.21875-0.21094 0.14844-0.3125 0.35938-0.3125 0.64062 0 0.26172 0.082031 0.46875 0.25 0.625 0.17578 0.14844 0.42188 0.21875 0.73438 0.21875 0.39453 0 0.72266-0.14062 0.98438-0.42188 0.25781-0.28125 0.39062-0.62891 0.39062-1.0469v-0.23438zm3.1562-0.78125v3.6875h-2.0938v-0.95312c-0.27344 0.38672-0.58594 0.67188-0.9375 0.85938-0.34375 0.17578-0.76172 0.26562-1.25 0.26562-0.66797 0-1.2148-0.19141-1.6406-0.57812-0.41797-0.39453-0.625-0.90625-0.625-1.5312 0-0.75781 0.25781-1.3164 0.78125-1.6719 0.53125-0.35156 1.3516-0.53125 2.4688-0.53125h1.2031v-0.15625c0-0.32031-0.13281-0.5625-0.39062-0.71875-0.25-0.15625-0.64844-0.23438-1.1875-0.23438-0.44922 0-0.86719 0.046875-1.25 0.14062-0.375 0.085937-0.72656 0.21484-1.0469 0.39062v-1.5625c0.4375-0.11328 0.87891-0.19531 1.3281-0.25 0.44531-0.050781 0.89453-0.078125 1.3438-0.078125 1.1562 0 1.9922 0.23047 2.5156 0.6875 0.51953 0.46094 0.78125 1.2031 0.78125 2.2344z"/>
  </symbol>
  <symbol id="c" overflow="visible">
   <path d="m3.25-8.2969v1.8438h2.125v1.4688h-2.125v2.7344c0 0.30469 0.054688 0.50781 0.17188 0.60938 0.125 0.10547 0.36328 0.15625 0.71875 0.15625h1.0625v1.4844h-1.7812c-0.8125 0-1.3906-0.16406-1.7344-0.5-0.33594-0.34375-0.5-0.92578-0.5-1.75v-2.7344h-1.0312v-1.4688h1.0312v-1.8438z"/>
  </symbol>
  <symbol id="k" overflow="visible">
   <path d="m5.3906-5.5156v-3.4531h2.0781v8.9688h-2.0781v-0.9375c-0.29297 0.38672-0.60938 0.66797-0.95312 0.84375-0.33594 0.17578-0.72656 0.26562-1.1719 0.26562-0.80469 0-1.4609-0.31641-1.9688-0.95312-0.51172-0.63281-0.76562-1.4453-0.76562-2.4375 0-1 0.25391-1.8125 0.76562-2.4375 0.50781-0.63281 1.1641-0.95312 1.9688-0.95312 0.4375 0 0.82812 0.089844 1.1719 0.26562 0.34375 0.17969 0.66016 0.45312 0.95312 0.82812zm-1.3594 4.1875c0.4375 0 0.76953-0.16016 1-0.48438 0.23828-0.32031 0.35938-0.78906 0.35938-1.4062 0-0.61328-0.12109-1.082-0.35938-1.4062-0.23047-0.32031-0.5625-0.48438-1-0.48438s-0.77734 0.16406-1.0156 0.48438c-0.23047 0.32422-0.34375 0.79297-0.34375 1.4062 0 0.61719 0.11328 1.0859 0.34375 1.4062 0.23828 0.32422 0.57812 0.48438 1.0156 0.48438z"/>
  </symbol>
  <symbol id="j" overflow="visible">
   <path d="m4.4375-1.3281c0.4375 0 0.76953-0.16016 1-0.48438 0.23828-0.32031 0.35938-0.78906 0.35938-1.4062 0-0.61328-0.12109-1.082-0.35938-1.4062-0.23047-0.32031-0.5625-0.48438-1-0.48438-0.44922 0-0.79297 0.16406-1.0312 0.48438-0.23047 0.32422-0.34375 0.79297-0.34375 1.4062 0 0.60547 0.11328 1.0742 0.34375 1.4062 0.23828 0.32422 0.58203 0.48438 1.0312 0.48438zm-1.375-4.1875c0.28125-0.375 0.59375-0.64844 0.9375-0.82812 0.34375-0.17578 0.74219-0.26562 1.2031-0.26562 0.78906 0 1.4414 0.32031 1.9531 0.95312 0.50781 0.625 0.76562 1.4375 0.76562 2.4375 0 0.99219-0.25781 1.8047-0.76562 2.4375-0.51172 0.63672-1.1641 0.95312-1.9531 0.95312-0.46094 0-0.85938-0.089844-1.2031-0.26562-0.34375-0.1875-0.65625-0.46875-0.9375-0.84375v0.9375h-2.0781v-8.9688h2.0781z"/>
  </symbol>
  <symbol id="g" overflow="visible">
   <path d="m0.14062-6.4531h2.0625l1.7344 4.375 1.4844-4.375h2.0625l-2.7188 7.0625c-0.27344 0.71875-0.58984 1.2188-0.95312 1.5-0.36719 0.28906-0.84375 0.4375-1.4375 0.4375h-1.1875v-1.3594h0.64062c0.35156 0 0.60938-0.058594 0.76562-0.17188 0.15625-0.10547 0.28125-0.30469 0.375-0.59375l0.046875-0.17188z"/>
  </symbol>
  <symbol id="i" overflow="visible">
   <path d="m8.8281-0.64062c-0.55469 0.27344-1.1328 0.47656-1.7344 0.60938-0.59375 0.13281-1.2109 0.20312-1.8438 0.20312-1.4297 0-2.5625-0.39844-3.4062-1.2031-0.83594-0.80078-1.25-1.8906-1.25-3.2656 0-1.3828 0.42578-2.4727 1.2812-3.2656 0.85156-0.80078 2.0195-1.2031 3.5-1.2031 0.57031 0 1.1172 0.058594 1.6406 0.17188 0.53125 0.10547 1.0234 0.26172 1.4844 0.46875v1.7812c-0.48047-0.26953-0.96094-0.47266-1.4375-0.60938-0.46875-0.13281-0.94531-0.20312-1.4219-0.20312-0.88672 0-1.5703 0.25-2.0469 0.75-0.46875 0.49219-0.70312 1.1953-0.70312 2.1094 0 0.90625 0.22656 1.6094 0.6875 2.1094 0.45703 0.5 1.1133 0.75 1.9688 0.75 0.22656 0 0.44141-0.015625 0.64062-0.046875 0.19531-0.03125 0.375-0.078125 0.53125-0.14062v-1.6719h-1.3594v-1.4844h3.4688z"/>
  </symbol>
  <symbol id="f" overflow="visible">
   <path d="m7.4844-3.9375v3.9375h-2.0781v-3.0156c0-0.55078-0.015625-0.92969-0.046875-1.1406-0.023437-0.21875-0.058594-0.375-0.10938-0.46875-0.085938-0.13281-0.19922-0.23828-0.34375-0.3125-0.13672-0.082031-0.29297-0.125-0.46875-0.125-0.42969 0-0.76562 0.16797-1.0156 0.5-0.24219 0.33594-0.35938 0.79688-0.35938 1.3906v3.1719h-2.0781v-6.4531h2.0781v0.9375c0.3125-0.375 0.64062-0.64844 0.98438-0.82812 0.35156-0.17578 0.73828-0.26562 1.1562-0.26562 0.75 0 1.3164 0.23047 1.7031 0.6875 0.38281 0.44922 0.57812 1.1094 0.57812 1.9844z"/>
  </symbol>
  <symbol id="t" overflow="visible">
   <path d="m1.0781-8.6094h2.2344v3.1406l3.1875-3.1406h2.5781l-4.1406 4.0781 4.5781 4.5312h-2.7812l-3.4219-3.3906v3.3906h-2.2344z"/>
  </symbol>
  <symbol id="h" overflow="visible">
   <path d="m7.4844-3.9375v3.9375h-2.0781v-3c0-0.5625-0.015625-0.94531-0.046875-1.1562-0.023437-0.21875-0.058594-0.375-0.10938-0.46875-0.085938-0.13281-0.19922-0.23828-0.34375-0.3125-0.13672-0.082031-0.29297-0.125-0.46875-0.125-0.42969 0-0.76562 0.16797-1.0156 0.5-0.24219 0.33594-0.35938 0.79688-0.35938 1.3906v3.1719h-2.0781v-8.9688h2.0781v3.4531c0.3125-0.375 0.64062-0.64844 0.98438-0.82812 0.35156-0.17578 0.73828-0.26562 1.1562-0.26562 0.75 0 1.3164 0.23047 1.7031 0.6875 0.38281 0.44922 0.57812 1.1094 0.57812 1.9844z"/>
  </symbol>
  <symbol id="a" overflow="visible">
   <path d="m4.0625-5.1406c-0.46094 0-0.80859 0.16797-1.0469 0.5-0.24219 0.32422-0.35938 0.79688-0.35938 1.4219 0 0.61719 0.11719 1.0898 0.35938 1.4219 0.23828 0.32422 0.58594 0.48438 1.0469 0.48438 0.44531 0 0.78906-0.16016 1.0312-0.48438 0.23828-0.33203 0.35938-0.80469 0.35938-1.4219 0-0.625-0.12109-1.0977-0.35938-1.4219-0.24219-0.33203-0.58594-0.5-1.0312-0.5zm0-1.4688c1.1133 0 1.9844 0.30469 2.6094 0.90625 0.625 0.59375 0.9375 1.4219 0.9375 2.4844s-0.3125 1.8984-0.9375 2.5c-0.625 0.59375-1.4961 0.89062-2.6094 0.89062-1.1172 0-1.9922-0.29688-2.625-0.89062-0.625-0.60156-0.9375-1.4375-0.9375-2.5s0.3125-1.8906 0.9375-2.4844c0.63281-0.60156 1.5078-0.90625 2.625-0.90625z"/>
  </symbol>
  <symbol id="s" overflow="visible">
   <path d="m1.0781-8.6094h2.2344v6.9375h3.8906v1.6719h-6.125z"/>
  </symbol>
  <symbol id="r" overflow="visible">
   <path d="m5.25-8.9688v1.3438h-1.1562c-0.29297 0-0.49609 0.058594-0.60938 0.17188-0.11719 0.10547-0.17188 0.28906-0.17188 0.54688v0.45312h1.7656v1.4688h-1.7656v4.9844h-2.0625v-4.9844h-1.0312v-1.4688h1.0312v-0.45312c0-0.70703 0.19141-1.2266 0.57812-1.5625 0.39453-0.33203 1.0039-0.5 1.8281-0.5z"/>
  </symbol>
  <symbol id="q" overflow="visible">
   <path d="m6.9844-5.3906c0.25781-0.39453 0.56641-0.69531 0.92188-0.90625 0.36328-0.20703 0.75781-0.3125 1.1875-0.3125 0.73828 0 1.3008 0.23047 1.6875 0.6875 0.39453 0.44922 0.59375 1.1094 0.59375 1.9844v3.9375h-2.0781v-3.375-0.14062c0.007813-0.0625 0.015625-0.14062 0.015625-0.23438 0-0.45703-0.070312-0.78906-0.20312-1-0.13672-0.20703-0.35547-0.3125-0.65625-0.3125-0.38672 0-0.6875 0.16406-0.90625 0.48438-0.21094 0.32422-0.32031 0.79297-0.32812 1.4062v3.1719h-2.0781v-3.375c0-0.70703-0.0625-1.1641-0.1875-1.375-0.125-0.20703-0.34375-0.3125-0.65625-0.3125-0.39844 0-0.70312 0.16797-0.92188 0.5-0.21094 0.32422-0.3125 0.78906-0.3125 1.3906v3.1719h-2.0781v-6.4531h2.0781v0.9375c0.25-0.36328 0.53516-0.63281 0.85938-0.8125 0.33203-0.1875 0.69531-0.28125 1.0938-0.28125 0.44531 0 0.84375 0.10938 1.1875 0.32812 0.34375 0.21094 0.60156 0.50781 0.78125 0.89062z"/>
  </symbol>
  <symbol id="p" overflow="visible">
   <path d="m1.0781-8.6094h2.4844l3.1406 5.9062v-5.9062h2.0938v8.6094h-2.4688l-3.1406-5.9062v5.9062h-2.1094z"/>
  </symbol>
  <symbol id="o" overflow="visible">
   <path d="m0.92188-2.5156v-3.9375h2.0781v0.64062c0 0.34375-0.007812 0.78125-0.015625 1.3125v1.0625c0 0.52344 0.007813 0.89844 0.03125 1.125 0.03125 0.23047 0.082031 0.39844 0.15625 0.5 0.082031 0.13672 0.19141 0.24219 0.32812 0.3125 0.13281 0.074219 0.28906 0.10938 0.46875 0.10938 0.42578 0 0.76562-0.16406 1.0156-0.5 0.25-0.33203 0.375-0.78906 0.375-1.375v-3.1875h2.0625v6.4531h-2.0625v-0.9375c-0.3125 0.375-0.64844 0.65625-1 0.84375-0.34375 0.17578-0.72656 0.26562-1.1406 0.26562-0.75 0-1.3242-0.22656-1.7188-0.6875-0.38672-0.45703-0.57812-1.125-0.57812-2z"/>
  </symbol>
  <symbol id="n" overflow="visible">
   <path d="m1.0781-8.6094h3.6875c1.0938 0 1.9297 0.24609 2.5156 0.73438 0.59375 0.48047 0.89062 1.1719 0.89062 2.0781 0 0.89844-0.29688 1.5898-0.89062 2.0781-0.58594 0.49219-1.4219 0.73438-2.5156 0.73438h-1.4531v2.9844h-2.2344zm2.2344 1.6094v2.4062h1.2188c0.42578 0 0.75781-0.10156 1-0.3125 0.23828-0.20703 0.35938-0.50391 0.35938-0.89062 0-0.38281-0.12109-0.67969-0.35938-0.89062-0.24219-0.20703-0.57422-0.3125-1-0.3125z"/>
  </symbol>
  <symbol id="m" overflow="visible">
   <path d="m0.98438-6.4531h2.0781v6.3438c0 0.86328-0.21094 1.5195-0.625 1.9688-0.41797 0.45703-1.0234 0.6875-1.8125 0.6875h-1.0156v-1.3594h0.35938c0.38281 0 0.64844-0.089844 0.79688-0.26562 0.14453-0.17969 0.21875-0.52344 0.21875-1.0312zm0-2.5156h2.0781v1.6719h-2.0781z"/>
  </symbol>
  <symbol id="l" overflow="visible">
   <path d="m6.2188-6.2656v1.6875c-0.28125-0.1875-0.57031-0.32812-0.85938-0.42188-0.28125-0.09375-0.57422-0.14062-0.875-0.14062-0.57422 0-1.0234 0.17188-1.3438 0.51562-0.32422 0.33594-0.48438 0.80469-0.48438 1.4062 0 0.60547 0.16016 1.0742 0.48438 1.4062 0.32031 0.33594 0.76953 0.5 1.3438 0.5 0.32031 0 0.62891-0.046875 0.92188-0.14062 0.28906-0.09375 0.5625-0.23438 0.8125-0.42188v1.6875c-0.32422 0.11719-0.65234 0.20312-0.98438 0.26562-0.33594 0.0625-0.66797 0.09375-1 0.09375-1.168 0-2.0859-0.29688-2.75-0.89062-0.65625-0.60156-0.98438-1.4375-0.98438-2.5 0-1.0703 0.32812-1.9062 0.98438-2.5 0.66406-0.59375 1.582-0.89062 2.75-0.89062 0.33203 0 0.66016 0.03125 0.98438 0.09375 0.33203 0.054687 0.66406 0.13672 1 0.25z"/>
  </symbol>
 </defs>
 <g>
  <path d="m281.16 253.1c16.762 4.5352 29.633 18.457 32.625 35.805h18.805v-11.227c0-6.0117 4.8906-10.898 10.902-10.898h38.586v-159.58h-110.84v76.754c5.2617 19.461 8.5508 42.438 9.9258 69.145z"/>
  <path d="m480.07 266.78c6.0117 0 10.902 4.8867 10.902 10.898v12.035h42.531c3.332-21.641 21.98-38.219 44.551-38.219 22.57 0 41.211 16.582 44.547 38.219h42.258l-11.039-79.973h-8.8555v-15.98h-10.625v15.98h-107.75l-13.254-62.547h-95.004v-22.109h-10.094v-46.641c-0.078125-9.3633-5.7578-16.5-10.852-21.359-5.1719-4.875-10.168-7.6367-10.359-7.75l-4.2812 7.707h-0.003906c0.003906 0 0.19922 0.10938 0.65234 0.38672 1.6133 0.97656 5.8711 3.7891 9.5273 7.6562 3.7031 3.8867 6.5391 8.6445 6.4922 13.355v46.641h-10.086v141.7l90.742 0.003906zm21.898-105.56 10.281 48.516h-81.691v-48.516z"/>
  <path d="m578.05 262.63c-18.742 0-33.988 15.254-33.988 33.992 0 18.738 15.25 33.988 33.988 33.988 18.738 0 33.988-15.254 33.988-33.988 0-18.738-15.25-33.992-33.988-33.992zm19.812 34c0 10.93-8.8906 19.812-19.82 19.812s-19.816-8.8828-19.816-19.812c0-10.938 8.8867-19.832 19.816-19.832 10.934-0.003906 19.82 8.8906 19.82 19.832z"/>
  <path d="m281.92 281.3c4.4336 3.6367 7.2617 9.1602 7.2617 15.332 0 6.4492-3.1055 12.172-7.8945 15.797-0.21094 5.2969-0.46094 10.652-0.77734 16.105-0.003907 0.058594-0.015625 0.11719-0.019531 0.17578 13.285-4.6211 22.867-17.242 22.867-32.082 0-14.41-9.0352-26.727-21.719-31.66 0.15625 5.3125 0.26172 10.734 0.28125 16.332z"/>
  <path d="m337.89 277.68v29.934c0 3.1016 2.5117 5.6133 5.6133 5.6133h136.57c3.1016 0 5.6133-2.5117 5.6133-5.6133v-29.934c0-3.1016-2.5117-5.6133-5.6133-5.6133h-136.57c-3.1016 0-5.6133 2.5156-5.6133 5.6133z"/>
  <path d="m292.38 335.39h-13.023c-0.56641 2.0547-1.3281 4.0312-2.2578 5.9023h391.28v-5.9023z"/>
  <path d="m213.56 237.93v-61.406c1.3984 2.8711 2.8086 6.1641 4.1992 10.004 6.6562 18.445 12.258 48.711 12.234 95.953 0 13.016-0.42188 27.32-1.3359 43.023-0.60547 10.414 7.3438 19.348 17.762 19.957 0.37109 0.019531 0.74609 0.03125 1.1172 0.03125 9.9297 0 18.254-7.75 18.84-17.785 0.95703-16.371 1.4023-31.402 1.4023-45.227-0.097656-71.262-11.477-110.7-27-134.42-7.75-11.77-16.828-19.32-25.211-23.504-4.2227-2.1289-8.1797-3.3945-11.605-4.1289-2.6172 17.668-9.6523 78.414 9.5977 117.5z"/>
  <path d="m85.844 237.92c19.242-39.098 12.211-99.832 9.6055-117.5-3.4297 0.73438-7.3906 2-11.617 4.1328-12.699 6.293-26.391 20.07-35.973 44.477-9.6953 24.508-16.203 59.938-16.234 113.44 0 13.82 0.44531 28.859 1.4062 45.234 0.58984 10.035 8.9102 17.781 18.84 17.781 0.36719 0 0.74609-0.007813 1.1211-0.03125 10.418-0.61328 18.363-9.5508 17.75-19.961-0.92578-15.707-1.3438-30.012-1.3438-43.023-0.078126-57.18 8.2539-89.293 16.445-106.06z"/>
  <path d="m149.7 169.91c21.512 0 36.25-37.371 40.68-50.211h-81.363c4.4336 12.84 19.172 50.211 40.684 50.211z"/>
  <path d="m213.56 299.43v-11.66h-127.71v243.04c0 16.125 13.074 29.191 29.191 29.191 16.121 0 29.195-13.062 29.195-29.191v-213.13h10.945v213.13c0 16.125 13.074 29.191 29.191 29.191 16.121 0 29.195-13.062 29.195-29.191l-0.007812-231.38z"/>
  <path d="m158.36 105.53c25.215-4.1406 44.457-26.02 44.457-52.406 0.003907-29.344-23.781-53.125-53.121-53.125-29.34 0-53.125 23.781-53.125 53.125 0 26.387 19.242 48.27 44.457 52.406 2.8242 0.46484 5.7188 0.71484 8.668 0.71484 2.9531 0 5.8398-0.25 8.6641-0.71484z"/>
  <use x="31.625" y="595.414062" xlink:href="#u"/>
  <use x="40.289063" y="595.414062" xlink:href="#e"/>
  <use x="46.109375" y="595.414062" xlink:href="#b"/>
  <use x="54.117188" y="595.414062" xlink:href="#d"/>
  <use x="62.082031" y="595.414062" xlink:href="#c"/>
  <use x="67.726562" y="595.414062" xlink:href="#b"/>
  <use x="75.730469" y="595.414062" xlink:href="#k"/>
  <use x="88.292969" y="595.414062" xlink:href="#j"/>
  <use x="96.742188" y="595.414062" xlink:href="#g"/>
  <use x="108.546875" y="595.414062" xlink:href="#i"/>
  <use x="118.238281" y="595.414062" xlink:href="#d"/>
  <use x="126.203125" y="595.414062" xlink:href="#f"/>
  <use x="138.71875" y="595.414062" xlink:href="#t"/>
  <use x="147.867188" y="595.414062" xlink:href="#h"/>
  <use x="156.269531" y="595.414062" xlink:href="#a"/>
  <use x="164.378906" y="595.414062" xlink:href="#a"/>
  <use x="172.492188" y="595.414062" xlink:href="#f"/>
  <use x="185.003906" y="595.414062" xlink:href="#s"/>
  <use x="192.527344" y="595.414062" xlink:href="#d"/>
  <use x="200.492188" y="595.414062" xlink:href="#g"/>
  <use x="31.625" y="607.222656" xlink:href="#r"/>
  <use x="36.757812" y="607.222656" xlink:href="#e"/>
  <use x="42.582031" y="607.222656" xlink:href="#a"/>
  <use x="50.691406" y="607.222656" xlink:href="#q"/>
  <use x="67.101562" y="607.222656" xlink:href="#c"/>
  <use x="72.746094" y="607.222656" xlink:href="#h"/>
  <use x="81.148438" y="607.222656" xlink:href="#b"/>
  <use x="93.265625" y="607.222656" xlink:href="#p"/>
  <use x="103.148438" y="607.222656" xlink:href="#a"/>
  <use x="111.257813" y="607.222656" xlink:href="#o"/>
  <use x="119.660156" y="607.222656" xlink:href="#f"/>
  <use x="132.175781" y="607.222656" xlink:href="#n"/>
  <use x="140.828125" y="607.222656" xlink:href="#e"/>
  <use x="146.648438" y="607.222656" xlink:href="#a"/>
  <use x="154.761719" y="607.222656" xlink:href="#m"/>
  <use x="158.804688" y="607.222656" xlink:href="#b"/>
  <use x="166.8125" y="607.222656" xlink:href="#l"/>
  <use x="173.8125" y="607.222656" xlink:href="#c"/>
 </g>
</svg>
